<svg height="424pt" viewBox="0 -10 424.158 424" width="424pt" xmlns="http://www.w3.org/2000/svg"><path d="m417.15625 348.078125h-268.292969c-2.753906-21.625-19.300781-38.921875-40.785156-42.632813v-257.296874c0-26.507813-21.992187-48.070313-48.5-48.070313h-52.578125c-3.867188 0-7 3.136719-7 7 0 3.867187 3.132812 7 7 7h52.578125c18.785156 0 34.5 15.28125 34.5 34.066406v257.027344c-25.546875 2.894531-44.652344 24.820313-44.03125 50.523437.617187 25.703126 20.761719 46.675782 46.417969 48.335938s48.335937-16.542969 52.261718-41.953125h268.429688c3.867188 0 7-3.132813 7-7 0-3.863281-3.132812-7-7-7zm-317.5 42c-19.683594 0-35.640625-15.957031-35.640625-35.640625s15.957031-35.640625 35.640625-35.640625c19.683594-.003906 35.644531 15.953125 35.644531 35.640625 0 19.683594-15.957031 35.640625-35.644531 35.640625zm0 0"/><path d="m359.148438 69.601562c-.597657-.945312-1.636719-1.519531-2.753907-1.523437h-62.316406v61h102.980469zm0 0"/><path d="m314.078125 311.078125v-74.585937l-55-23v97.585937zm0 0"/><path d="m173.679688 311.078125h71.398437v-108.109375c.027344-2.351562 1.21875-4.535156 3.179687-5.828125 1.964844-1.296875 4.441407-1.53125 6.613282-.628906l68.882812 28.867187c2.609375 1.085938 4.3125 3.632813 4.324219 6.457032v79.242187h71.476563c1.796874 0 3.523437-1.179687 3.523437-2.980469v-165.019531h-233v165.019531c0 1.800782 1.800781 2.980469 3.601563 2.980469zm0 0"/><path d="m280.078125 68.078125h-63.238281c-1.117188 0-2.15625.574219-2.753906 1.523437l-37.90625 59.476563h103.898437zm0 0"/></svg>